<?xml version="1.0" encoding="utf-8"?>
<!-- Generator: Adobe Illustrator 27.2.0, SVG Export Plug-In . SVG Version: 6.00 Build 0)  -->
<svg version="1.1" id="Camada_1" xmlns="http://www.w3.org/2000/svg" xmlns:xlink="http://www.w3.org/1999/xlink" x="0px" y="0px"
	 viewBox="0 0 1125 2436" style="enable-background:new 0 0 1125 2436;" xml:space="preserve" transform="rotate(270)">
<style type="text/css">
	.st0{fill:#00008B;}
</style>
<path class="st0" d="M769.79,975.51c6.94-6.36,7.79-19.08,9.49-44.53c1.79-26.81-1.34-47.89-3.65-60.36
	c-1.39-7.48-3.27-15.29-5.84-23.59C742.2,757.73,667.97,713.7,657.37,707.61c-29.64-17.03-55.91-23.42-65.7-25.55
	c0,0-52.58-11.43-108.77,2.92c-81.31,20.76-153.3,86.53-171.55,155.49c-3.93,14.84-7.99,39.77-9.49,65.7
	c-3.09,53.31-4.24,62.76,2.19,69.35c6.26,6.41,11.68,4.76,62.05,6.57c35.98,1.29,52.58,2.83,55.48-4.38
	c2.06-5.14-4.8-10.29-10.22-28.47c-2.1-7.06-2.89-13.21-3.21-17.57c-0.18-4.04-0.21-9.74,0.55-16.49
	c3.49-30.73,19.91-51.75,26.02-59.37c33.13-41.33,83.57-48.25,100.74-49.64c10.63-0.86,29.53-2.2,51.83,5.11
	c33.24,10.9,70.52,38.12,79.57,76.65c3.48,14.82,2.58,29.17,2.19,33.58c-2.79,31.75-18.01,44.33-11.68,54.02
	c4.86,7.44,15.94,3.25,53.88,3.42C751.33,979.12,760.63,983.9,769.79,975.51z"/>
<polygon class="st0" points="301.86,1009.09 770.52,1233.93 770.52,1241.96 312.08,1461.69 301.86,1461.69 301.86,1341.24 
	536.19,1235.39 536.19,1231.74 301.86,1130.27 "/>
<path class="st0" d="M836.22,1567.63c3.52-0.57,7.04-1.14,10.56-1.71c2.83-1.12,5.66-2.24,8.49-3.35c0.25-1.75,0.5-3.49,0.75-5.24
	c-0.15-1.95-0.3-3.9-0.46-5.85l-8.4-4.74l-12.04-1.83l-48.36-63.78l-2.01-2.65l-0.32-1.32l-7.12-0.55l-0.27,2.05l0.14,3.29
	c0,0-319.13-7.45-363.81,0c-105.12,17.52-113.19,103.34-113.19,103.34v44.62l1.69,0.05l475.59,0.37v6.93h7.3
	C801.91,1614.04,819.06,1590.83,836.22,1567.63z M666.04,1594.45l1.37-73.64h69.81v73.64H666.04z"/>
<path class="st0" d="M936.77,1471.27c0,0,35.59,44.3,35.86,85.66c0.27,41.36-35.86,89.26-35.86,89.26l19.16,19.44
	c0,0,47.08-7.39,55.02-97.18c7.94-89.79-51.19-119.9-51.19-119.9L936.77,1471.27z"/>
<path class="st0" d="M892.24,1521c2.4,1.83,18.02,14.17,19.34,35.77c1.58,25.72-18.55,41.21-20.07,42.34
	c9.79,7.24,19.59,14.48,29.38,21.72c22.13-14.43,34.9-39.69,33.4-66.06c-1.5-26.39-17.06-50.04-40.7-61.87
	C906.48,1502.26,899.36,1511.63,892.24,1521z"/>
<path class="st0" d="M977.56,1430.21c10.77,13.15,45.17,58.45,46.26,125.92c1.16,71.32-35.66,119.56-45.99,132.22
	c3.72,4.55,7.99,9.35,12.87,14.23c3.83,3.84,7.6,7.3,11.22,10.4c12.31-9.66,31.12-26.84,46.26-53.38
	c23.8-41.73,23.98-81.1,24.09-104.02c0.04-7.58-0.39-48.02-16.97-86.23c-2.85-6.57-7.31-16.69-15.74-28.33
	c-9.7-13.4-20.54-23.14-27.37-29.29c-3.79-3.41-7.05-6.12-9.35-7.98C994.41,1412.56,985.98,1421.39,977.56,1430.21z"/>
<path class="st0" d="M707.37,1708.06c8.09,4.25,60.09,32.59,74.46,90.88c5.55,22.52,2.19,41.67-4.38,79.93
	c-7.55,43.94-12.35,76.27-33.76,85.23c-5.45,2.28-8.21,1.48-49.09-6.75c-47.58-9.58-55.1-10.78-57.3-17.15
	c-3.83-11.09,15.14-18.37,28.83-52.56c4.85-12.11,9.98-25.44,5.84-40.88c-0.59-2.19-6.92-24.79-20.8-27.74
	c-17.17-3.65-30.56,25.98-77.74,80.3c-38.46,44.27-57.11,56.3-63.14,60.04c-14.58,9.04-37,22.95-68.98,25.73
	c-7.44,0.65-65.07,4.75-104.57-36.68c-17.95-18.83-24.24-38.76-30.66-59.13c-13.06-41.43-9.31-77.05-6.57-100.74
	c2.89-25.01,8.13-41.77,13.14-57.49c9.87-30.96,18.03-50.69,35.59-58.03c10.88-4.55,14.57,0.47,63.14,11.31
	c35.65,7.96,48.63,8.6,51.28,17.15c2.26,7.29-5.24,12.99-18.07,30.11c-15.52,20.72-35.96,47.28-35.04,76.65
	c0.18,5.68,0.97,30.89,18.61,41.61c0.84,0.51,13.42,7.9,26.28,3.28c13.08-4.69,18.9-19.09,20.8-23.54
	c13.51-31.67,59.85-103.22,102.93-127.57C633.74,1670.63,704.13,1706.35,707.37,1708.06z"/>
<polygon class="st0" points="220.11,886.82 220.11,1031.63 180.96,1031.63 180.96,980.44 132.51,982.14 132.51,973.05 161.8,942.66 
	180.96,942.12 182.88,886.82 "/>
<polygon class="st0" points="139.08,941.57 76.39,941.57 68.72,947.04 68.72,973.6 74.47,979.89 109.24,979.89 139.08,948.96 
	139.08,942.94 "/>
<path class="st0" d="M148.38,1157.01c-0.82,0-72.54,0-72.54,0l-7.39,5.75v113.6l6.3,9.58h28.74l4.93-6.02v-78.02l39.97-31.75
	V1157.01z"/>
<polygon class="st0" points="172.47,1157.01 127.03,1200.53 127.03,1279.92 129.77,1285.94 164.26,1285.94 165.08,1215.59 
	178.22,1200.81 184.24,1201.35 184.24,1283.75 184.24,1285.94 214.9,1285.94 222.84,1279.92 222.84,1157.01 "/>
<path class="st0" d="M184.34,1421.54c-2.93,0.53-6.21,4.86-12.77,13.5c-7.48,9.87-7.58,12.38-7.48,13.69
	c0.22,2.91,1.68,3.76,9.12,12.92c5.32,6.55,8.01,9.88,9.31,12.99c0.84,2.02,3.53,8.47,1.82,15.51c-1.16,4.82-3.41,5.89-13.28,17.44
	c-9.77,11.43-10.7,14.05-11.18,15.78c-1.2,4.35,0.56,3.58-0.73,15.69c-0.34,3.17-0.92,7.49,0,13.14c0.54,3.34,0.92,5.48,2.55,6.93
	c1.75,1.56,5.24,2.58,13.5-0.36c23.37-8.33,36.5-28.47,36.5-28.47c9.07-13.91,11.18-27.08,12.05-32.85
	c0.97-6.5,2.34-16.68-0.37-28.1c-2.72-11.51-8.28-18.57-16.72-29.3C197.65,1428.59,191.14,1420.31,184.34,1421.54z"/>
<path class="st0" d="M177.95,1413.32c-0.75-3.13-7.43-4.03-14.05-4.93c-5.54-0.75-9.7-1.03-18.98-0.73c-8.04,0.26-10.98-0.1-13.87,0
	c-16.06,0.56-39.21,15.68-52.19,37.96c-9.82,16.85-10.79,32.57-10.95,36.86c-0.86,22.46,8.39,38.5,12.41,45.26
	c7.69,7.17,28.02,25.74,43.43,35.04c2.28,1.38,6.19,3.6,9.49,2.19c4.36-1.87,4.99-8.96,5.84-18.43c1.02-11.46-1.32-18.15-3.28-22.08
	l0,0c-2.15-2.35-5.46-5.91-9.62-10.17c-7.31-7.49-8.16-7.83-10.09-10.63c-1.68-2.45-6.37-9.46-6.2-18.98
	c0.11-6.41,2.38-11.14,4.19-14.89c2.48-5.18,5.37-8.62,8.07-11.83c3.42-4.07,5.13-6.1,7.81-7.58c4.97-2.74,7.63-1.18,13.14-2.56
	c3.45-0.86,3.9-1.97,15.33-11.68c7.25-6.16,3.75-4.59,14.6-15.69C176.65,1416.73,178.38,1415.12,177.95,1413.32z"/>
<polygon class="st0" points="218.65,1778.87 218.65,1814.27 69.73,1814.27 68.45,1781.79 78.49,1775.58 127.03,1775.58 
	127.03,1735.43 174.94,1683.97 218.65,1683.97 218.65,1720.1 194.92,1720.47 161.71,1749.12 161.34,1771.93 167.18,1777.04 "/>
<polygon class="st0" points="152.22,1683.97 77.76,1683.97 67.85,1694.55 68.45,1716.09 76.66,1724.12 120.63,1724.12 
	152.22,1693.09 "/>
</svg>
